<svg xmlns="http://www.w3.org/2000/svg" width="121" height="20" viewBox="0 0 121 20" fill="none"><path fill-rule="evenodd" clip-rule="evenodd" d="M6.12874 2.55523H0V0H15.2258V2.55523H9.08744V19.6734H6.12874V2.55523ZM25.0073 17.6562C24.4597 18.7608 23.086 20 20.646 20C17.8411 20 15.6606 18.4054 15.6606 15.5044C15.6606 12.1518 18.5231 11.4217 21.3185 11.0951C21.6247 11.0596 21.9099 11.0285 22.1749 10.9996C24.204 10.778 25.0457 10.686 25.0457 9.75988V9.69264C25.0457 8.02117 24.0948 7.05095 22.2407 7.05095C20.3099 7.05095 19.234 8.0596 18.8113 9.10666L16.112 8.49187C17.0726 5.80214 19.5318 4.72626 22.2023 4.72626C24.5462 4.72626 27.9276 5.5812 27.9276 9.87516V19.6734H25.1226V17.6562H25.0073ZM18.4751 15.5428C18.4751 16.9645 19.6471 17.6946 21.2705 17.6946C23.6625 17.6946 25.0553 16.1 25.0553 14.3516V12.4496C24.6809 12.824 22.8307 13.0643 21.7937 13.1989L21.7934 13.199C21.6864 13.2128 21.5881 13.2256 21.501 13.2373C19.8391 13.4583 18.4751 14.0058 18.4751 15.5428ZM42.81 8.52069C42.2143 6.22481 40.418 4.72626 37.2287 4.72626C33.8953 4.72626 31.5323 6.48418 31.5323 9.09706C31.5323 11.1912 32.8003 12.5841 35.5668 13.1989L38.0644 13.7464C39.4862 14.0634 40.149 14.6975 40.149 15.6197C40.149 16.7628 38.929 17.6562 37.0462 17.6562C35.3267 17.6562 34.222 16.9165 33.8761 15.4659L31.1 15.8885C31.5803 18.5015 33.7513 19.9712 37.0654 19.9712C40.6292 19.9712 43.098 18.0789 43.098 15.4083C43.098 13.3237 41.7724 12.0365 39.0635 11.4121L36.7196 10.8742C35.0961 10.49 34.3949 9.9424 34.4045 8.94337C34.3949 7.80984 35.6245 7.00292 37.2575 7.00292C39.0443 7.00292 39.8705 7.99235 40.2066 8.98178L42.81 8.52069ZM49.1284 19.6734H46.2561V0H49.1284V11.1624H49.3781L55.257 4.91835H58.696L52.721 11.2488L59.0995 19.6734H55.5741L50.5596 13.0068L49.1284 14.4381V19.6734ZM61.5443 19.6734H64.3493V17.3775H64.5895C65.1082 18.3189 66.1649 19.9616 68.8546 19.9616C72.428 19.9616 75.0218 17.0989 75.0218 12.3247C75.0218 7.54083 72.3896 4.72623 68.8258 4.72623C66.088 4.72623 65.0986 6.3977 64.5895 7.31029H64.4165V0H61.5443V19.6734ZM64.3589 12.2959C64.3589 9.21231 65.7037 7.1662 68.2109 7.1662C70.8143 7.1662 72.1207 9.36601 72.1207 12.2959C72.1207 15.2546 70.7757 17.512 68.2109 17.512C65.7422 17.512 64.3589 15.3986 64.3589 12.2959ZM86.9022 17.6562C86.3547 18.7608 84.9809 20 82.541 20C79.736 20 77.5554 18.4054 77.5554 15.5044C77.5554 12.1518 80.4181 11.4217 83.2134 11.0951C83.5196 11.0596 83.8048 11.0285 84.0697 10.9996C86.0988 10.778 86.9406 10.686 86.9406 9.75988V9.69264C86.9406 8.02117 85.9896 7.05095 84.1355 7.05095C82.2048 7.05095 81.1288 8.0596 80.7061 9.10666L78.0069 8.49187C78.9674 5.80214 81.4267 4.72626 84.0971 4.72626C86.4411 4.72626 89.8224 5.5812 89.8224 9.87516V19.6734H87.0174V17.6562H86.9022ZM80.3699 15.5428C80.3699 16.9645 81.5419 17.6946 83.1653 17.6946C85.5573 17.6946 86.9502 16.1 86.9502 14.3516V12.4496C86.5758 12.824 84.7258 13.0642 83.6889 13.1989C83.5817 13.2128 83.4832 13.2256 83.396 13.2373C81.7341 13.4583 80.3699 14.0058 80.3699 15.5428ZM104.705 8.52069C104.109 6.22481 102.313 4.72626 99.1236 4.72626C95.7903 4.72626 93.4271 6.48418 93.4271 9.09706C93.4271 11.1912 94.6951 12.5841 97.4618 13.1989L99.9593 13.7464C101.381 14.0634 102.044 14.6975 102.044 15.6197C102.044 16.7628 100.824 17.6562 98.941 17.6562C97.2216 17.6562 96.1168 16.9165 95.7711 15.4659L92.9948 15.8885C93.4751 18.5015 95.6461 19.9712 98.9603 19.9712C102.524 19.9712 104.993 18.0789 104.993 15.4083C104.993 13.3237 103.667 12.0365 100.958 11.4121L98.6144 10.8742C96.9909 10.49 96.2898 9.9424 96.2994 8.94337C96.2898 7.80984 97.5194 7.00292 99.1525 7.00292C100.939 7.00292 101.765 7.99235 102.102 8.98178L104.705 8.52069ZM120.658 15.9847C120.005 18.3862 117.728 19.9712 114.51 19.9712C110.159 19.9712 107.488 16.9741 107.488 12.392C107.488 7.85787 110.197 4.72626 114.309 4.72626C117.652 4.72626 120.841 6.81079 120.841 12.1422V13.1605H110.351C110.428 16.0039 112.08 17.5986 114.539 17.5986C116.172 17.5986 117.421 16.8877 117.94 15.4948L120.658 15.9847ZM114.328 7.09898C111.993 7.09898 110.476 8.91454 110.36 11.0087H118.026C118.016 8.75124 116.556 7.09898 114.328 7.09898Z" fill="#5D62C7"></path></svg>
