<svg width="48" height="48" viewBox="0 0 48 48" fill="none" xmlns="http://www.w3.org/2000/svg"><path d="M21.169 5.43784c.7392-1.12649 2.0595-2.08837 3.7368-2.00424 3.4255.17181 10.5227 2.03647 17.4127 12.7265 6.9226 10.7412 5.5437 20.5296 4.3972 24.793-.5795 2.1563-2.6051 3.3155-4.5796 3.3155H5.22233c-4.02215 0-6.65839-4.3841-4.378966-7.8576L21.169 5.43784z" fill="#DAFEF2"/><path d="M21.169 5.43784c.7393-1.12649 2.0595-2.08837 3.7368-2.00424 3.4255.17181 10.5227 2.03647 17.4128 12.7265 6.9226 10.7412 5.5436 20.5296 4.3971 24.793-.5798 2.1563-2.605 3.3155-4.5795 3.3155h-1.3327c.0463-.1509.0936-.3107.1412-.479.394-1.3869.8243-3.3555.9861-5.7237.324-4.7487-.4344-11.1234-4.7325-17.5705-4.2081-6.3123-8.9641-9.73-12.7393-11.56412-1.7787-.8642-3.3289-1.37184-4.4877-1.66834l1.1977-1.8251z" fill="#00E5A6"/><path fill-rule="evenodd" clip-rule="evenodd" d="M9.25635 23.5912l8.33015-12.6939c2.7622 1.174 4.6992 3.9122 4.6992 7.1029 0 4.2605-3.4538 7.7143-7.7142 7.7143-2.0601 0-3.9316-.8075-5.31515-2.1233zM31.6913 44.2689H14.5944c-.5647-1.21-.8801-2.5595-.8801-3.983 0-5.2073 4.2213-9.4286 9.4286-9.4286 5.2072 0 9.4286 4.2213 9.4286 9.4286 0 1.4235-.3155 2.773-.8802 3.983z" fill="#00E5A6"/></svg>