<svg width="48" height="48" viewBox="0 0 48 48" fill="none" xmlns="http://www.w3.org/2000/svg"><g clip-path="url(#clip0_107_7740)"><path d="M24 27.4286c1.8935 0 3.4286-1.5351 3.4286-3.4286S25.8935 20.5714 24 20.5714 20.5714 22.1065 20.5714 24 22.1065 27.4286 24 27.4286z" fill="#5D62C7"/><path fill-rule="evenodd" clip-rule="evenodd" d="M26.5714 2.57143C26.5714 1.15127 25.4201 0 24 0c-1.4201 0-2.5714 1.15127-2.5714 2.57143V6c0 1.42015 1.1513 2.57143 2.5714 2.57143 1.4201 0 2.5714-1.15128 2.5714-2.57143V2.57143zm0 39.42857c0-1.4201-1.1513-2.5714-2.5714-2.5714-1.4201 0-2.5714 1.1513-2.5714 2.5714v3.4286C21.4286 46.8487 22.5799 48 24 48c1.4201 0 2.5714-1.1513 2.5714-2.5714V42zm12.8572-18c0-1.4201 1.1513-2.5714 2.5714-2.5714h3.4286C46.8487 21.4286 48 22.5799 48 24c0 1.4201-1.1513 2.5714-2.5714 2.5714H42c-1.4201 0-2.5714-1.1513-2.5714-2.5714zM2.57143 21.4286C1.15127 21.4286 0 22.5799 0 24c0 1.4201 1.15127 2.5714 2.57143 2.5714H6c1.42015 0 2.57143-1.1513 2.57143-2.5714 0-1.4201-1.15128-2.5714-2.57143-2.5714H2.57143zM7.02939 7.02939c1.0042-1.00422 2.63232-1.00422 3.63651 0l2.9509 2.95084c1.0042 1.00417 1.0042 2.63227 0 3.63657-1.0043 1.0042-2.6324 1.0042-3.63657 0l-2.95084-2.9509c-1.00422-1.00419-1.00422-2.63231 0-3.63651zM38.0198 34.3827c-1.0043-1.0043-2.6325-1.0043-3.6367 0-1.0041 1.0043-1.0041 2.6322 0 3.6364l2.951 2.951c1.0042 1.0042 2.6324 1.0042 3.6366 0 1.0043-1.0043 1.0043-2.6325 0-3.6367l-2.9509-2.9507zm2.9509-27.35331c1.0043 1.0042 1.0043 2.63232 0 3.63651l-2.9509 2.9509c-1.0043 1.0042-2.6325 1.0042-3.6367 0-1.0041-1.0043-1.0041-2.6324 0-3.63657l2.951-2.95084c1.0042-1.00422 2.6324-1.00422 3.6366 0zM13.6168 38.0191c1.0042-1.0042 1.0042-2.6321 0-3.6364-1.0043-1.0043-2.6324-1.0043-3.63657 0l-2.95084 2.9507c-1.00422 1.0042-1.00422 2.6324 0 3.6367 1.0042 1.0042 2.63232 1.0042 3.63651 0l2.9509-2.951z" fill="#C5C7EB"/></g><defs><clipPath id="clip0_107_7740"><path fill="#fff" d="M0 0h48v48H0z"/></clipPath></defs></svg>