<svg width="48" height="48" viewBox="0 0 48 48" fill="none" xmlns="http://www.w3.org/2000/svg"><g clip-path="url(#clip0_107_7753)"><path fill-rule="evenodd" clip-rule="evenodd" d="M24 0C17.6348 0 11.5303 2.52856 7.02944 7.02944 2.52856 11.5303 0 17.6348 0 24s2.52856 12.4697 7.02944 16.9706c.6908.6908 1.41937 1.3351 2.18086 1.931.02871.0241.05811.047.08812.0686C13.4829 46.2133 18.6494 48 24 48c5.3507 0 10.5172-1.7868 14.7017-5.0299.0299-.0216.0592-.0444.0879-.0684.7615-.5959 1.4901-1.2403 2.181-1.9311C45.4714 36.4697 48 30.3652 48 24c0-6.3652-2.5286-12.4697-7.0294-16.97056C36.4697 2.52856 30.3652 0 24 0zm13.8889 39.7512c.3285-.2897.6488-.5904.9603-.902C42.7875 34.911 45 29.5695 45 24s-2.2125-10.911-6.1508-14.84924C34.911 5.21249 29.5695 3 24 3S13.089 5.21249 9.15076 9.15076C5.21249 13.089 3 18.4305 3 24s2.21249 10.911 6.15076 14.8492c.31153.3116.63184.6123.96034.902 1.7263-1.5232 3.6939-2.7542 5.8253-3.641 2.5554-1.0632 5.2958-1.6105 8.0636-1.6105 2.7678 0 5.5082.5473 8.0636 1.6105 2.1314.8868 4.099 2.1178 5.8253 3.641zm-25.3326 1.8569C15.9367 43.805 19.9067 45 24 45s8.0633-1.195 11.4437-3.3919c-1.3657-1.1256-2.8925-2.0457-4.5325-2.728-2.1902-.9113-4.539-1.3804-6.9112-1.3804-2.3722 0-4.721.4691-6.9113 1.3804-1.6399.6823-3.1668 1.6024-4.5324 2.728zm2.9584-30.5934C17.7652 8.76428 20.8174 7.5 24 7.5c3.1826 0 6.2348 1.26428 8.4853 3.5147C34.7357 13.2652 36 16.3174 36 19.5c0 3.1826-1.2643 6.2348-3.5147 8.4853C30.2348 30.2357 27.1826 31.5 24 31.5c-3.1826 0-6.2348-1.2643-8.4853-3.5147C13.2643 25.7348 12 22.6826 12 19.5c0-3.1826 1.2643-6.2348 3.5147-8.4853zM24 10.5c-2.3869 0-4.6761.9482-6.364 2.636C15.9482 14.8239 15 17.1131 15 19.5s.9482 4.6761 2.636 6.364C19.3239 27.5518 21.6131 28.5 24 28.5s4.6761-.9482 6.364-2.636C32.0518 24.1761 33 21.8869 33 19.5s-.9482-4.6761-2.636-6.364C28.6761 11.4482 26.3869 10.5 24 10.5z" fill="#5D62C7"/></g><defs><clipPath id="clip0_107_7753"><path fill="#fff" d="M0 0h48v48H0z"/></clipPath></defs></svg>