<svg width="48" height="48" viewBox="0 0 48 48" fill="none" xmlns="http://www.w3.org/2000/svg"><path d="M31.0858 24.0858l4.8-4.8 7-7c.1833-.1869.2859-.4382.2859-.7 0-.2617-.1026-.513-.2859-.7l-5.5999-5.59996C37.0989 5.10262 36.8476 5 36.5858 5c-.2617 0-.513.10262-.7.28584l-11.8 11.79996-4.7999-4.8-7-6.99996C12.0989 5.10262 11.8476 5 11.5858 5c-.2617 0-.513.10262-.7.28584L5.28586 10.8858c-.18323.187-.28586.4383-.28586.7 0 .2618.10263.5131.28586.7l11.79994 11.8-4.7999 4.8-7.00004 7c-.18323.187-.28586.4383-.28586.7 0 .2618.10263.5131.28586.7l5.59994 5.6c.187.1833.4383.2859.7.2859.2618 0 .5131-.1026.7001-.2859l11.7999-11.8 4.8 4.8 7 7c.187.1833.4383.2859.7.2859.2618 0 .5131-.1026.7001-.2859l5.5999-5.6c.1833-.1869.2859-.4382.2859-.7 0-.2617-.1026-.513-.2859-.7l-11.8-11.8z" fill="#5D62C7"/></svg>