<svg width="48" height="48" viewBox="0 0 48 48" fill="none" xmlns="http://www.w3.org/2000/svg"><path fill-rule="evenodd" clip-rule="evenodd" d="M6.26202 12.6511c0-4.66739 3.78368-8.45103 8.45098-8.45103h18.582c4.6672 0 8.451 3.78364 8.451 8.45103v15.9136c0 2.8005-2.2701 5.0706-5.0706 5.0706H11.3326c-2.80042 0-5.07058-2.2701-5.07058-5.0706V12.6511zM14.713 9.27066c-1.867 0-3.3804 1.51344-3.3804 3.38044v15.9136h25.3428V12.6511c0-1.867-1.5133-3.38044-3.3804-3.38044H14.713z" fill="#DAFEF2"/><path fill-rule="evenodd" clip-rule="evenodd" d="M40.0563 26.8502h.9024l.5109.7437 5.5988 8.1521c2.3438 3.4125-.0994 8.0544-4.2391 8.0544H5.17091c-4.13965 0-6.58289-4.6416-4.239493-8.0541l5.598133-8.1522.51082-.7439H40.0563z" fill="#00E5A6"/></svg>